<svg width="27" height="12" viewBox="0 0 27 12" fill="none" xmlns="http://www.w3.org/2000/svg">
<path opacity="0.35" d="M21.629 0C23.2767 0 24.6125 1.22471 24.6125 2.73505V8.88817C24.6123 10.3984 23.2766 11.6222 21.629 11.6222H2.98342C1.33589 11.6222 0.000196606 10.3984 0 8.88817V2.73505C0 1.22471 1.33577 0 2.98342 0H21.629ZM2.98342 1.02552C2.00799 1.02552 1.20745 1.71211 1.12567 2.58683L1.11866 2.73505V8.88817C1.11884 9.78223 1.86795 10.5158 2.82218 10.5907L2.98342 10.5967H21.629C22.6046 10.5967 23.4052 9.91027 23.4868 9.03539L23.4938 8.88817V2.73505C23.4938 1.84086 22.7446 1.10643 21.7903 1.03153L21.629 1.02552H2.98342ZM25.638 3.76057C26.4632 4.10802 27 4.91624 27 5.81161C26.9999 6.70689 26.4631 7.51527 25.638 7.86265V3.76057Z" fill="black"/>
</svg>
