<svg width="27" height="27" viewBox="0 0 27 27" fill="none" xmlns="http://www.w3.org/2000/svg">
<path d="M13.49 18.4446C11.3737 18.4446 9.12704 18.1438 7.08098 17.6222C6.69985 17.0405 6.41902 16.4186 6.28863 15.7868C8.44502 16.3986 10.9524 16.8198 13.5 16.8198C16.0475 16.8198 18.555 16.3986 20.7214 15.7868C20.5709 16.4186 20.3001 17.0405 19.929 17.6222C17.883 18.1337 15.6363 18.4446 13.5 18.4446H13.49ZM13.49 22.5267C18.0234 22.5267 21.6642 19.1969 22.1657 15.2452C22.276 14.4528 21.7544 14.0917 21.0524 14.2923C18.5048 15.0446 16.1177 15.4658 13.49 15.4658C10.8622 15.4658 8.49517 15.0446 5.93759 14.2923C5.23551 14.0917 4.72399 14.4528 4.82429 15.2452C5.31575 19.1969 8.9465 22.5267 13.49 22.5267ZM17.4016 12.3165C18.234 12.3165 18.9762 11.5643 18.9762 10.5011C18.9762 9.43796 18.234 8.6757 17.4016 8.6757C16.5691 8.6757 15.8369 9.43796 15.8369 10.5011C15.8369 11.5643 16.5691 12.3165 17.4016 12.3165ZM9.55832 12.3165C10.4008 12.3165 11.143 11.5643 11.143 10.5011C11.143 9.43796 10.4008 8.6757 9.55832 8.6757C8.71582 8.6757 8.01374 9.43796 8.01374 10.5011C8.01374 11.5643 8.72585 12.3165 9.55832 12.3165ZM13.5 24.7032C7.28157 24.7032 2.2968 19.7184 2.2968 13.49C2.2968 7.26151 7.27154 2.28677 13.49 2.28677C19.7084 2.28677 24.7132 7.27154 24.7132 13.5C24.7132 19.7284 19.7284 24.7132 13.5 24.7132V24.7032ZM13.5 26.99C20.8819 26.99 27 20.8718 27 13.49C27 6.10809 20.8819 0 13.49 0C6.09807 0 0 6.11812 0 13.5C0 20.8819 6.11812 27 13.5 27V26.99Z" fill="#3C3C43" fill-opacity="0.8"/>
</svg>
