<svg width="298" height="13" viewBox="0 0 298 13" fill="none" xmlns="http://www.w3.org/2000/svg">
<path d="M4.38184 0C6.10687 0 7.4726 0.817605 8.26562 2.33008C8.81329 3.30285 9.09955 4.56175 9.09961 6.05762C9.09961 10.0309 7.31683 12.3779 4.31641 12.3779C2.15827 12.3778 0.514691 11.1025 0.163086 9.16504H2.26465C2.53451 10.056 3.31935 10.6123 4.33301 10.6123C6.05796 10.6123 7.07998 9.00141 7.08008 6.30371H6.94141C6.3855 7.42355 5.2652 8.06921 3.88379 8.06934C1.63552 8.06934 0 6.41733 0 4.14453C0.000230826 1.72489 1.81501 0.000110791 4.38184 0ZM23.6113 8.11035H25.2061V9.89258H23.6113V12.0918H21.5918V9.89258H15.8281V8.01172C16.8909 6.05778 18.551 3.43329 20.6357 0.293945H23.6113V8.11035ZM32 12.0918H29.8906V2.41992H29.752L26.8164 4.48047V2.45312L29.8984 0.293945H32V12.0918ZM227.667 7.55762C228.219 7.55787 228.667 8.00549 228.667 8.55762V10.5576C228.667 11.1094 228.219 11.5574 227.667 11.5576H226.667C226.115 11.5576 225.667 11.1095 225.667 10.5576V8.55762C225.667 8.00533 226.115 7.55762 226.667 7.55762H227.667ZM232.334 5.55762C232.886 5.55805 233.334 6.0056 233.334 6.55762V10.5576C233.334 11.1093 232.886 11.5572 232.334 11.5576H231.334C230.782 11.5576 230.334 11.1095 230.334 10.5576V6.55762C230.334 6.00533 230.782 5.55762 231.334 5.55762H232.334ZM237 3.22363C237.552 3.22389 238 3.67166 238 4.22363V10.5576C238 11.1094 237.552 11.5574 237 11.5576H236C235.448 11.5574 235 11.1094 235 10.5576V4.22363C235 3.67161 235.448 3.22381 236 3.22363H237ZM241.667 0.890625C242.219 0.890881 242.667 1.3385 242.667 1.89062V10.5576C242.667 11.1094 242.219 11.5574 241.667 11.5576H240.667C240.115 11.5576 239.667 11.1095 239.667 10.5576V1.89062C239.667 1.33834 240.115 0.890625 240.667 0.890625H241.667ZM257.12 8.95508C258.396 7.87619 260.264 7.87619 261.54 8.95508C261.604 9.0131 261.641 9.09526 261.643 9.18164C261.644 9.26797 261.61 9.35162 261.549 9.41211L259.552 11.4277C259.493 11.4868 259.413 11.5205 259.33 11.5205C259.247 11.5204 259.167 11.4868 259.108 11.4277L257.11 9.41211C257.049 9.3516 257.015 9.2679 257.017 9.18164C257.018 9.09534 257.056 9.01304 257.12 8.95508ZM12.4678 8.25684C13.2444 8.25684 13.7763 8.80496 13.7764 9.54883C13.7764 10.2846 13.2444 10.8408 12.4678 10.8408C11.6994 10.8407 11.1602 10.2845 11.1602 9.54883C11.1603 8.80504 11.6995 8.25696 12.4678 8.25684ZM296.667 2.55664C297.403 2.55682 298 3.15435 298 3.89062V8.55664C298 9.29291 297.403 9.89045 296.667 9.89062H279.333C278.597 9.89045 278 9.29291 278 8.55664V3.89062C278 3.15435 278.597 2.55682 279.333 2.55664H296.667ZM21.5107 2.01074C20.3826 3.67849 19.1557 5.61629 17.7822 8.03613V8.15918H21.625V2.01074H21.5107ZM254.455 6.26562C257.203 3.70958 261.459 3.70964 264.207 6.26562C264.269 6.32548 264.305 6.40804 264.306 6.49414C264.306 6.58019 264.273 6.66352 264.212 6.72461L263.058 7.8916C262.939 8.01039 262.746 8.01322 262.624 7.89746C261.722 7.08028 260.548 6.62788 259.33 6.62793C258.113 6.6285 256.94 7.08085 256.038 7.89746C255.916 8.01296 255.723 8.01053 255.604 7.8916L254.45 6.72461C254.39 6.66363 254.356 6.58011 254.356 6.49414C254.357 6.40816 254.393 6.32544 254.455 6.26562ZM4.39844 1.75781C3.08234 1.75781 2.0686 2.76307 2.06836 4.0791C2.06836 5.42806 3.03349 6.39355 4.39062 6.39355C5.73937 6.39336 6.7285 5.42842 6.72852 4.1123C6.72852 2.77971 5.71468 1.75783 4.39844 1.75781ZM251.79 3.58398C256.005 -0.455185 262.655 -0.455437 266.87 3.58398C266.931 3.64392 266.965 3.72609 266.966 3.81152C266.966 3.89696 266.932 3.97941 266.872 4.04004L265.716 5.20703C265.597 5.32618 265.404 5.32761 265.283 5.20996C263.677 3.68323 261.546 2.83216 259.33 2.83203C257.114 2.83209 254.982 3.68314 253.376 5.20996C253.255 5.32762 253.062 5.32658 252.943 5.20703L251.787 4.04004C251.727 3.97936 251.693 3.89697 251.693 3.81152C251.694 3.72616 251.729 3.64388 251.79 3.58398ZM12.4678 2.13379C13.2444 2.13379 13.7764 2.68181 13.7764 3.42578C13.7762 4.16145 13.2444 4.70898 12.4678 4.70898C11.6995 4.70886 11.1603 4.16137 11.1602 3.42578C11.1602 2.68189 11.6994 2.13391 12.4678 2.13379Z" fill="#080C10"/>
</svg>
